<svg width="134" height="134" viewBox="0 0 134 134" fill="none" xmlns="http://www.w3.org/2000/svg">
<path d="M70.9661 0.762831C67.9292 -0.254277 66.0708 -0.254277 63.0339 0.762831C55.6252 3.24407 55.9465 18.9464 58.2359 34.4387C52.4396 19.8903 44.8357 6.14818 37.1825 7.72096C34.0454 8.36568 32.4381 9.29849 30.322 11.7026C25.2329 17.4842 33.0907 30.6079 42.6619 42.7152C30.5335 33.1707 17.3926 25.3417 11.6222 30.4435C9.22273 32.5648 8.29345 34.1742 7.65563 37.3128C6.11026 44.9173 19.6719 52.44 34.1224 58.1895C18.7333 55.9425 3.22719 55.6756 0.762831 63.0339C-0.254277 66.0708 -0.254277 67.9292 0.762831 70.9661C3.22719 78.3244 18.7333 78.0575 34.1224 75.8105C19.6719 81.56 6.1102 89.0827 7.65557 96.6872C8.29339 99.8258 9.22267 101.435 11.6221 103.557C17.3925 108.658 30.5332 100.83 42.6614 91.2851C33.0904 103.392 25.2328 116.516 30.3218 122.297C32.4379 124.702 34.0452 125.634 37.1823 126.279C44.8357 127.852 52.4397 114.109 58.236 99.5605C55.9466 115.053 55.6251 130.756 63.0339 133.237C66.0708 134.254 67.9292 134.254 70.9661 133.237C78.3751 130.756 78.0534 115.052 75.7638 99.5596C81.5602 114.109 89.1644 127.852 96.8179 126.279C99.955 125.634 101.562 124.702 103.678 122.297C108.767 116.516 100.91 103.392 91.3388 91.2851C103.467 100.83 116.608 108.658 122.378 103.557C124.778 101.435 125.707 99.8258 126.345 96.6872C127.89 89.0827 114.328 81.5601 99.8779 75.8106C115.267 78.0575 130.773 78.3243 133.237 70.9661C134.254 67.9292 134.254 66.0708 133.237 63.0339C130.773 55.6757 115.267 55.9425 99.8779 58.1894C114.328 52.4399 127.89 44.9173 126.345 37.3128C125.707 34.1742 124.777 32.5648 122.378 30.4435C116.608 25.3417 103.467 33.1707 91.3384 42.7152C100.91 30.6079 108.767 17.4842 103.678 11.7026C101.562 9.29849 99.9549 8.36568 96.8177 7.72096C89.1643 6.14815 81.5603 19.8909 75.7639 34.4396C78.0534 18.947 78.3749 3.24412 70.9661 0.762831Z" fill="url(#paint0_linear_652_529)"/>
<defs>
<linearGradient id="paint0_linear_652_529" x1="67" y1="0" x2="67" y2="134" gradientUnits="userSpaceOnUse">
<stop stop-color="#35A6DE"/>
<stop offset="1" stop-color="#62B66E"/>
</linearGradient>
</defs>
</svg>
